<?xml version="1.0" encoding="utf-8"?>
<!-- Generator: Adobe Illustrator 27.5.0, SVG Export Plug-In . SVG Version: 6.00 Build 0)  -->
<svg version="1.1" xmlns="http://www.w3.org/2000/svg" xmlns:xlink="http://www.w3.org/1999/xlink" x="0px" y="0px"
	 viewBox="0 0 500 500" style="enable-background:new 0 0 500 500;" xml:space="preserve">
<g id="Background">
	<rect style="fill:#FFFFFF;" width="500" height="500"/>
</g>
<g id="Objects">
	<g>
		<g>
			<text transform="matrix(1 0 0 1 149.1294 245.4187)" style="fill:#166B48; font-family:'BebasNeueBold'; font-size:173.9126px;">404</text>
			<g>
				<path style="fill:#ED6C32;" d="M370.311,158.804L370.311,158.804c-4.083,2.722-5.274,8.189-2.694,12.363l3.163,5.116
					l4.581-1.604l4.582,1.604l3.163-5.116c2.58-4.174,1.389-9.641-2.694-12.363l0,0
					C377.353,156.765,373.369,156.765,370.311,158.804z"/>
				<path style="fill:#ED6C32;" d="M351.449,175.525L351.449,175.525c0.316,4.897,4.455,8.662,9.36,8.515l6.012-0.181l0.902-4.77
					l3.68-3.166l-2.849-5.297c-2.324-4.321-7.655-6.023-12.054-3.848l0,0C353.205,168.407,351.212,171.857,351.449,175.525z"/>
				<path style="fill:#ED6C32;" d="M356.499,200.221L356.499,200.221c4.399,2.175,9.729,0.473,12.054-3.848l2.849-5.297l-3.68-3.166
					l-0.902-4.77l-6.012-0.181c-4.905-0.148-9.044,3.618-9.36,8.515l0,0C351.212,195.141,353.205,198.592,356.499,200.221z"/>
				<path style="fill:#ED6C32;" d="M380.411,208.195L380.411,208.195c4.083-2.722,5.274-8.189,2.694-12.363l-3.163-5.116
					l-4.582,1.604l-4.582-1.604l-3.163,5.116c-2.58,4.174-1.389,9.641,2.694,12.363l0,0
					C373.369,210.234,377.353,210.234,380.411,208.195z"/>
				<path style="fill:#ED6C32;" d="M399.273,191.473L399.273,191.473c-0.316-4.897-4.455-8.662-9.36-8.515l-6.012,0.181l-0.902,4.77
					l-3.68,3.166l2.85,5.297c2.324,4.321,7.655,6.023,12.054,3.848l0,0C397.518,198.592,399.51,195.141,399.273,191.473z"/>
				<path style="fill:#ED6C32;" d="M394.223,166.778L394.223,166.778c-4.398-2.175-9.729-0.473-12.054,3.848l-2.85,5.297l3.68,3.166
					l0.902,4.77l6.012,0.181c4.905,0.148,9.044-3.618,9.36-8.515l0,0C399.51,171.857,397.518,168.407,394.223,166.778z"/>
				
					<ellipse transform="matrix(0.2287 -0.9735 0.9735 0.2287 110.8956 506.9587)" style="fill:#F8C64D;" cx="375.361" cy="183.499" rx="11.225" ry="11.225"/>
			</g>
			<g>
				<path style="fill:#ED6C32;" d="M285.776,306.434L285.776,306.434c-3.113,2.075-4.021,6.244-2.054,9.426l2.411,3.901l3.493-1.223
					l3.493,1.223l2.411-3.901c1.967-3.182,1.059-7.351-2.054-9.426l0,0C291.145,304.879,288.108,304.879,285.776,306.434z"/>
				<path style="fill:#ED6C32;" d="M271.395,319.183L271.395,319.183c0.241,3.733,3.397,6.604,7.136,6.492l4.584-0.138l0.688-3.637
					l2.806-2.414l-2.173-4.039c-1.772-3.295-5.837-4.592-9.19-2.934l0,0C272.733,313.755,271.214,316.386,271.395,319.183z"/>
				<path style="fill:#ED6C32;" d="M275.245,338.012L275.245,338.012c3.354,1.658,7.418,0.361,9.19-2.934l2.173-4.039l-2.806-2.414
					l-0.688-3.637l-4.584-0.138c-3.74-0.113-6.895,2.758-7.136,6.492l0,0C271.214,334.139,272.733,336.77,275.245,338.012z"/>
				<path style="fill:#ED6C32;" d="M293.477,344.091L293.477,344.091c3.113-2.075,4.021-6.244,2.054-9.426l-2.411-3.901
					l-3.493,1.223l-3.493-1.223l-2.411,3.901c-1.967,3.182-1.059,7.351,2.054,9.426h0
					C288.108,345.646,291.145,345.646,293.477,344.091z"/>
				<path style="fill:#ED6C32;" d="M307.858,331.342L307.858,331.342c-0.241-3.733-3.397-6.604-7.136-6.492l-4.584,0.138
					l-0.688,3.637l-2.805,2.414l2.173,4.039c1.772,3.295,5.837,4.592,9.19,2.934l0,0C306.52,336.77,308.038,334.139,307.858,331.342
					z"/>
				<path style="fill:#ED6C32;" d="M304.007,312.513L304.007,312.513c-3.354-1.658-7.418-0.361-9.19,2.934l-2.173,4.039l2.805,2.414
					l0.688,3.637l4.584,0.138c3.739,0.113,6.895-2.759,7.136-6.492l0,0C308.038,316.386,306.52,313.755,304.007,312.513z"/>
				<circle style="fill:#F8C64D;" cx="289.626" cy="325.263" r="8.558"/>
			</g>
			<g>
				<path style="fill:#ED6C32;" d="M231.185,247.255L231.185,247.255c-1.95,1.3-2.52,3.912-1.287,5.906l1.511,2.444l2.189-0.766
					l2.189,0.766l1.511-2.444c1.233-1.994,0.663-4.606-1.287-5.906l0,0C234.549,246.281,232.646,246.281,231.185,247.255z"/>
				<path style="fill:#ED6C32;" d="M222.174,255.243L222.174,255.243c0.151,2.339,2.128,4.138,4.471,4.068l2.872-0.086l0.431-2.279
					l1.758-1.512l-1.361-2.531c-1.111-2.064-3.657-2.877-5.758-1.838l0,0C223.013,251.842,222.061,253.49,222.174,255.243z"/>
				<path style="fill:#ED6C32;" d="M224.587,267.04L224.587,267.04c2.101,1.039,4.648,0.226,5.758-1.839l1.361-2.531l-1.758-1.512
					l-0.431-2.279l-2.872-0.087c-2.343-0.07-4.32,1.728-4.471,4.068l0,0C222.061,264.614,223.013,266.262,224.587,267.04z"/>
				<path style="fill:#ED6C32;" d="M236.01,270.85L236.01,270.85c1.95-1.3,2.52-3.912,1.287-5.906l-1.511-2.444l-2.189,0.766
					l-2.189-0.766l-1.511,2.444c-1.233,1.994-0.663,4.606,1.287,5.906v0C232.646,271.824,234.549,271.824,236.01,270.85z"/>
				<path style="fill:#ED6C32;" d="M245.021,262.862L245.021,262.862c-0.151-2.339-2.128-4.138-4.471-4.068l-2.872,0.087
					l-0.431,2.279l-1.758,1.512l1.361,2.531c1.111,2.064,3.657,2.878,5.758,1.839l0,0
					C244.182,266.262,245.134,264.614,245.021,262.862z"/>
				<path style="fill:#ED6C32;" d="M242.608,251.064L242.608,251.064c-2.101-1.039-4.648-0.226-5.758,1.839l-1.361,2.531
					l1.758,1.512l0.431,2.279l2.872,0.086c2.343,0.07,4.32-1.728,4.471-4.068l0,0C245.134,253.49,244.182,251.842,242.608,251.064z"
					/>
				<path style="fill:#F8C64D;" d="M238.96,259.052c0,2.962-2.401,5.363-5.362,5.363s-5.362-2.401-5.362-5.363
					c0-2.962,2.401-5.362,5.362-5.362S238.96,256.091,238.96,259.052z"/>
			</g>
			<g>
				<path style="fill:#F8C64D;" d="M299.868,228.014L299.868,228.014c-3.116,2.077-4.026,6.251-2.056,9.437l2.414,3.905l3.497-1.224
					l3.497,1.224l2.414-3.905c1.969-3.186,1.06-7.359-2.056-9.437l0,0C305.243,226.458,302.202,226.458,299.868,228.014z"/>
				<path style="fill:#F8C64D;" d="M285.471,240.777L285.471,240.777c0.241,3.738,3.401,6.612,7.144,6.499l4.589-0.138l0.689-3.641
					l2.809-2.417l-2.175-4.043c-1.774-3.298-5.843-4.598-9.201-2.937l0,0C286.811,235.344,285.29,237.977,285.471,240.777z"/>
				<path style="fill:#F8C64D;" d="M289.326,259.627L289.326,259.627c3.357,1.66,7.426,0.361,9.201-2.938l2.175-4.043l-2.809-2.417
					l-0.689-3.641l-4.589-0.138c-3.744-0.113-6.903,2.762-7.144,6.499l0,0C285.29,255.75,286.811,258.384,289.326,259.627z"/>
				<path style="fill:#F8C64D;" d="M307.578,265.713L307.578,265.713c3.116-2.078,4.026-6.251,2.056-9.437l-2.414-3.905
					l-3.497,1.224l-3.497-1.224l-2.414,3.905c-1.969,3.186-1.06,7.359,2.056,9.437l0,0
					C302.202,267.27,305.243,267.27,307.578,265.713z"/>
				<path style="fill:#F8C64D;" d="M321.975,252.95L321.975,252.95c-0.241-3.738-3.401-6.612-7.144-6.499l-4.589,0.138l-0.689,3.641
					l-2.809,2.417l2.175,4.043c1.774,3.298,5.843,4.597,9.201,2.938h0C320.635,258.384,322.155,255.75,321.975,252.95z"/>
				<path style="fill:#F8C64D;" d="M318.12,234.1L318.12,234.1c-3.357-1.66-7.426-0.361-9.201,2.937l-2.175,4.043l2.809,2.417
					l0.689,3.641l4.589,0.138c3.744,0.113,6.903-2.762,7.144-6.499l0,0C322.155,237.977,320.635,235.344,318.12,234.1z"/>
				
					<ellipse transform="matrix(0.2306 -0.973 0.973 0.2306 -6.5259 485.474)" style="fill:#ED6C32;" cx="303.723" cy="246.864" rx="8.568" ry="8.568"/>
			</g>
			<g>
				<path style="fill:#F8C64D;" d="M309.494,127.211L309.494,127.211c-2.314,1.543-2.99,4.643-1.527,7.009l1.793,2.9l2.597-0.909
					l2.597,0.909l1.793-2.9c1.463-2.366,0.787-5.465-1.527-7.009l0,0C313.486,126.055,311.228,126.055,309.494,127.211z"/>
				<path style="fill:#F8C64D;" d="M298.802,136.69L298.802,136.69c0.179,2.776,2.526,4.91,5.306,4.827l3.408-0.103l0.511-2.704
					l2.086-1.795l-1.615-3.003c-1.318-2.45-4.34-3.415-6.833-2.182v0C299.797,132.655,298.668,134.611,298.802,136.69z"/>
				<path style="fill:#F8C64D;" d="M301.665,150.69L301.665,150.69c2.493,1.233,5.515,0.268,6.833-2.182l1.615-3.003l-2.086-1.795
					l-0.511-2.704l-3.408-0.102c-2.78-0.084-5.127,2.051-5.306,4.827l0,0C298.668,147.81,299.797,149.766,301.665,150.69z"/>
				<path style="fill:#F8C64D;" d="M315.22,155.21L315.22,155.21c2.315-1.543,2.99-4.642,1.527-7.008l-1.793-2.9l-2.597,0.909
					l-2.597-0.909l-1.793,2.9c-1.463,2.366-0.787,5.465,1.527,7.008l0,0C311.228,156.366,313.486,156.366,315.22,155.21z"/>
				<path style="fill:#F8C64D;" d="M325.913,145.731L325.913,145.731c-0.179-2.776-2.526-4.911-5.306-4.827l-3.408,0.102
					l-0.511,2.704l-2.086,1.795l1.615,3.003c1.318,2.45,4.34,3.415,6.833,2.182l0,0C324.917,149.766,326.047,147.81,325.913,145.731
					z"/>
				<path style="fill:#F8C64D;" d="M323.05,131.732L323.05,131.732c-2.493-1.233-5.515-0.268-6.833,2.182l-1.615,3.003l2.086,1.795
					l0.511,2.704l3.408,0.103c2.78,0.084,5.127-2.051,5.306-4.827l0,0C326.047,134.611,324.917,132.655,323.05,131.732z"/>
				<path style="fill:#ED6C32;" d="M318.72,141.211c0,3.514-2.849,6.363-6.363,6.363c-3.514,0-6.363-2.849-6.363-6.363
					c0-3.514,2.849-6.363,6.363-6.363C315.872,134.847,318.72,137.696,318.72,141.211z"/>
			</g>
			<g>
				<path style="fill:#F8C64D;" d="M249.28,309.288L249.28,309.288c-2.031,1.354-2.624,4.075-1.34,6.152l1.574,2.546l2.28-0.798
					l2.28,0.798l1.574-2.546c1.284-2.077,0.691-4.797-1.341-6.152l0,0C252.784,308.274,250.801,308.274,249.28,309.288z"/>
				<path style="fill:#F8C64D;" d="M239.894,317.609L239.894,317.609c0.157,2.436,2.217,4.31,4.657,4.237l2.992-0.09l0.449-2.373
					l1.831-1.575l-1.418-2.636c-1.157-2.15-3.809-2.997-5.998-1.915l0,0C240.768,314.067,239.776,315.784,239.894,317.609z"/>
				<path style="fill:#F8C64D;" d="M242.407,329.897L242.407,329.897c2.189,1.082,4.841,0.235,5.998-1.915l1.418-2.636l-1.831-1.575
					l-0.449-2.373l-2.992-0.09c-2.44-0.073-4.5,1.8-4.657,4.237l0,0C239.776,327.37,240.768,329.086,242.407,329.897z"/>
				<path style="fill:#F8C64D;" d="M254.306,333.865L254.306,333.865c2.032-1.354,2.624-4.075,1.341-6.152l-1.574-2.546l-2.28,0.798
					l-2.28-0.798l-1.574,2.546c-1.284,2.077-0.691,4.797,1.34,6.152l0,0C250.801,334.879,252.784,334.879,254.306,333.865z"/>
				<path style="fill:#F8C64D;" d="M263.691,325.544L263.691,325.544c-0.157-2.436-2.217-4.31-4.657-4.237l-2.992,0.09l-0.449,2.373
					l-1.831,1.575l1.418,2.636c1.157,2.15,3.809,2.997,5.998,1.915l0,0C262.818,329.086,263.809,327.37,263.691,325.544z"/>
				<path style="fill:#F8C64D;" d="M261.178,313.256L261.178,313.256c-2.189-1.082-4.841-0.235-5.998,1.915l-1.418,2.636
					l1.831,1.575l0.449,2.373l2.992,0.09c2.441,0.073,4.5-1.8,4.657-4.237l0,0C263.809,315.784,262.818,314.067,261.178,313.256z"/>
				<circle style="fill:#ED6C32;" cx="251.793" cy="321.577" r="5.585"/>
			</g>
			<g>
				<path style="fill:#F8C64D;" d="M285.879,39.862L285.879,39.862c-2.088,1.392-2.697,4.188-1.378,6.323l1.618,2.617l2.343-0.82
					l2.343,0.82l1.618-2.617c1.32-2.135,0.71-4.931-1.378-6.323l0,0C289.481,38.819,287.443,38.819,285.879,39.862z"/>
				<path style="fill:#F8C64D;" d="M276.233,48.414L276.233,48.414c0.162,2.504,2.279,4.43,4.787,4.355l3.075-0.093l0.461-2.439
					l1.882-1.619l-1.457-2.709c-1.189-2.21-3.915-3.08-6.165-1.968l0,0C277.13,44.773,276.112,46.538,276.233,48.414z"/>
				<path style="fill:#F8C64D;" d="M278.815,61.044L278.815,61.044c2.25,1.112,4.976,0.242,6.165-1.968l1.457-2.709l-1.882-1.619
					l-0.461-2.439l-3.075-0.092c-2.508-0.076-4.625,1.85-4.787,4.355l0,0C276.112,58.446,277.13,60.211,278.815,61.044z"/>
				<path style="fill:#F8C64D;" d="M291.045,65.122L291.045,65.122c2.088-1.392,2.697-4.188,1.378-6.323l-1.618-2.617l-2.343,0.82
					l-2.343-0.82l-1.618,2.617c-1.32,2.135-0.71,4.931,1.378,6.323l0,0C287.443,66.165,289.481,66.165,291.045,65.122z"/>
				<path style="fill:#F8C64D;" d="M300.692,56.57L300.692,56.57c-0.161-2.504-2.279-4.43-4.787-4.355l-3.075,0.093l-0.461,2.439
					l-1.882,1.619l1.457,2.709c1.189,2.21,3.915,3.081,6.165,1.968l0,0C299.794,60.211,300.813,58.446,300.692,56.57z"/>
				<path style="fill:#F8C64D;" d="M298.109,43.94L298.109,43.94c-2.249-1.112-4.976-0.242-6.165,1.968l-1.457,2.709l1.882,1.619
					l0.461,2.439l3.075,0.093c2.508,0.075,4.625-1.85,4.787-4.355l0,0C300.813,46.538,299.794,44.773,298.109,43.94z"/>
				<path style="fill:#ED6C32;" d="M294.203,52.492c0,3.171-2.57,5.741-5.741,5.741s-5.741-2.57-5.741-5.741
					c0-3.171,2.57-5.741,5.741-5.741S294.203,49.321,294.203,52.492z"/>
			</g>
			<g>
				<path style="fill:#ED6C32;" d="M147.561,247.892l-4.182,2.415l-10.953-18.972c-0.667-1.155-0.271-2.632,0.884-3.298l0,0
					c1.155-0.667,2.632-0.271,3.299,0.884L147.561,247.892z"/>
				<path style="fill:#ED6C32;" d="M145.44,246.668v4.829h-21.907c-1.333,0-2.415-1.081-2.415-2.415l0,0
					c0-1.334,1.081-2.415,2.415-2.415H145.44z"/>
				<path style="fill:#ED6C32;" d="M143.32,247.892l4.182,2.415l-10.953,18.972c-0.667,1.155-2.144,1.551-3.299,0.884l0,0
					c-1.155-0.667-1.551-2.143-0.884-3.298L143.32,247.892z"/>
				<path style="fill:#ED6C32;" d="M143.32,250.341l4.182-2.415l10.953,18.972c0.667,1.155,0.271,2.632-0.884,3.298l0,0
					c-1.155,0.667-2.632,0.271-3.298-0.884L143.32,250.341z"/>
				<path style="fill:#ED6C32;" d="M145.44,251.565v-4.829h21.907c1.334,0,2.415,1.081,2.415,2.415v0
					c0,1.333-1.081,2.415-2.415,2.415H145.44z"/>
				<path style="fill:#ED6C32;" d="M147.561,250.341l-4.182-2.415l10.953-18.972c0.667-1.155,2.143-1.551,3.298-0.884l0,0
					c1.155,0.667,1.551,2.144,0.884,3.299L147.561,250.341z"/>
				<g>
					<path style="fill:#F8C64D;" d="M141.315,228.775L141.315,228.775c-3.363,2.242-4.345,6.747-2.219,10.185l2.606,4.215
						l3.774-1.321l3.774,1.321l2.606-4.215c2.126-3.438,1.144-7.943-2.219-10.185l0,0
						C147.116,227.095,143.834,227.095,141.315,228.775z"/>
					<path style="fill:#F8C64D;" d="M125.776,242.55L125.776,242.55c0.26,4.034,3.67,7.136,7.711,7.014l4.953-0.149l0.743-3.929
						l3.031-2.608l-2.347-4.364c-1.915-3.56-6.307-4.962-9.93-3.17l0,0C127.222,236.686,125.581,239.529,125.776,242.55z"/>
					<path style="fill:#F8C64D;" d="M129.937,262.895L129.937,262.895c3.624,1.792,8.015,0.39,9.93-3.17l2.347-4.364l-3.031-2.608
						l-0.743-3.929l-4.953-0.149c-4.04-0.122-7.451,2.98-7.711,7.014l0,0C125.581,258.71,127.222,261.553,129.937,262.895z"/>
					<path style="fill:#F8C64D;" d="M149.636,269.464L149.636,269.464c3.363-2.242,4.345-6.747,2.219-10.185l-2.606-4.215
						l-3.774,1.321l-3.775-1.321l-2.606,4.215c-2.126,3.438-1.144,7.943,2.219,10.185l0,0
						C143.834,271.144,147.116,271.144,149.636,269.464z"/>
					<path style="fill:#F8C64D;" d="M165.175,255.689L165.175,255.689c-0.26-4.034-3.67-7.136-7.711-7.014l-4.953,0.149
						l-0.743,3.929l-3.031,2.608l2.347,4.364c1.915,3.56,6.307,4.962,9.93,3.17h0C163.728,261.553,165.369,258.71,165.175,255.689z"
						/>
					<path style="fill:#F8C64D;" d="M161.014,235.344L161.014,235.344c-3.624-1.792-8.015-0.389-9.93,3.171l-2.347,4.364
						l3.031,2.608l0.743,3.929l4.953,0.149c4.04,0.122,7.451-2.981,7.711-7.014l0,0
						C165.369,239.529,163.728,236.686,161.014,235.344z"/>
					<circle style="fill:#ED6C32;" cx="145.475" cy="249.12" r="9.247"/>
				</g>
			</g>
			<g>
				<path style="fill:#F8C64D;" d="M236.352,49.208l-2.652,1.531l-6.945-12.029c-0.423-0.732-0.172-1.669,0.56-2.091l0,0
					c0.732-0.423,1.669-0.172,2.091,0.56L236.352,49.208z"/>
				<path style="fill:#F8C64D;" d="M235.008,48.432v3.062h-13.89c-0.846,0-1.531-0.686-1.531-1.531l0,0
					c0-0.846,0.685-1.531,1.531-1.531H235.008z"/>
				<path style="fill:#F8C64D;" d="M233.663,49.208l2.652,1.531l-6.945,12.029c-0.423,0.732-1.359,0.983-2.091,0.56l0,0
					c-0.732-0.423-0.983-1.359-0.56-2.091L233.663,49.208z"/>
				<path style="fill:#F8C64D;" d="M233.663,50.761l2.652-1.531l6.945,12.029c0.423,0.732,0.172,1.669-0.56,2.091l0,0
					c-0.732,0.423-1.669,0.172-2.091-0.56L233.663,50.761z"/>
				<path style="fill:#F8C64D;" d="M235.008,51.537v-3.062h13.89c0.845,0,1.531,0.686,1.531,1.531l0,0
					c0,0.846-0.686,1.531-1.531,1.531H235.008z"/>
				<path style="fill:#F8C64D;" d="M236.352,50.761L233.7,49.23l6.945-12.029c0.423-0.732,1.359-0.983,2.091-0.56l0,0
					c0.732,0.423,0.983,1.359,0.56,2.091L236.352,50.761z"/>
				<g>
					<path style="fill:#ED6C32;" d="M232.392,37.087L232.392,37.087c-2.133,1.422-2.755,4.278-1.407,6.458l1.652,2.673l2.393-0.838
						l2.393,0.838l1.652-2.673c1.348-2.18,0.725-5.036-1.407-6.458h0C236.07,36.022,233.989,36.022,232.392,37.087z"/>
					<path style="fill:#ED6C32;" d="M222.54,45.821L222.54,45.821c0.165,2.558,2.327,4.525,4.889,4.447l3.14-0.094l0.471-2.491
						l1.922-1.654l-1.488-2.767c-1.214-2.257-3.999-3.146-6.296-2.01l0,0C223.457,42.103,222.416,43.905,222.54,45.821z"/>
					<path style="fill:#ED6C32;" d="M225.178,58.721L225.178,58.721c2.298,1.136,5.082,0.247,6.296-2.01l1.488-2.767l-1.922-1.654
						l-0.471-2.491l-3.14-0.095c-2.562-0.077-4.724,1.89-4.889,4.448l0,0C222.416,56.067,223.457,57.87,225.178,58.721z"/>
					<path style="fill:#ED6C32;" d="M237.668,62.886L237.668,62.886c2.133-1.422,2.755-4.278,1.407-6.458l-1.652-2.673l-2.393,0.838
						l-2.393-0.838l-1.652,2.673c-1.348,2.18-0.725,5.036,1.407,6.458l0,0C233.989,63.951,236.07,63.951,237.668,62.886z"/>
					<path style="fill:#ED6C32;" d="M247.52,54.152L247.52,54.152c-0.165-2.558-2.327-4.525-4.889-4.448l-3.141,0.095l-0.471,2.491
						l-1.922,1.654l1.488,2.767c1.214,2.257,3.999,3.146,6.296,2.01l0,0C246.603,57.87,247.643,56.067,247.52,54.152z"/>
					<path style="fill:#ED6C32;" d="M244.882,41.252L244.882,41.252c-2.298-1.136-5.082-0.247-6.296,2.01l-1.488,2.767l1.922,1.654
						l0.471,2.491l3.14,0.094c2.562,0.077,4.724-1.89,4.889-4.447l0,0C247.643,43.905,246.603,42.103,244.882,41.252z"/>
					<circle style="fill:#F8C64D;" cx="235.03" cy="49.986" r="5.863"/>
				</g>
			</g>
			<g>
				<path style="fill:#A4D794;" d="M409.891,218.306c-7.152-5.02-16.853-5.755-24.907-1.081
					c-8.054,4.674-12.227,13.463-11.415,22.163c7.152,5.02,16.853,5.755,24.907,1.081
					C406.529,235.795,410.702,227.006,409.891,218.306z"/>
				
					<line style="fill:none;stroke:#75A64D;stroke-width:3.7003;stroke-linecap:round;stroke-miterlimit:10;" x1="402.131" y1="222.811" x2="368.635" y2="242.253"/>
				
					<line style="fill:none;stroke:#75A64D;stroke-width:3.7003;stroke-linecap:round;stroke-miterlimit:10;" x1="395.831" y1="219.329" x2="393.671" y2="227.468"/>
				
					<line style="fill:none;stroke:#75A64D;stroke-width:3.7003;stroke-linecap:round;stroke-miterlimit:10;" x1="398.019" y1="234.959" x2="386.957" y2="232.022"/>
				
					<line style="fill:none;stroke:#75A64D;stroke-width:3.7003;stroke-linecap:round;stroke-miterlimit:10;" x1="382.821" y1="225.811" x2="380.425" y2="234.835"/>
			</g>
			<g>
				<path style="fill:#75A64D;" d="M338.443,65.615c-8.187,7.923-11.516,20.163-7.512,31.625
					c4.004,11.462,14.23,18.967,25.569,20.069c8.187-7.923,11.516-20.163,7.512-31.625
					C360.008,74.222,349.782,66.716,338.443,65.615z"/>
				
					<line style="fill:none;stroke:#A4D794;stroke-width:4.8245;stroke-linecap:round;stroke-miterlimit:10;" x1="342.301" y1="76.659" x2="358.953" y2="124.33"/>
				
					<line style="fill:none;stroke:#A4D794;stroke-width:4.8245;stroke-linecap:round;stroke-miterlimit:10;" x1="336.293" y1="83.868" x2="346.182" y2="88.637"/>
				
					<line style="fill:none;stroke:#A4D794;stroke-width:4.8245;stroke-linecap:round;stroke-miterlimit:10;" x1="356.844" y1="84.913" x2="350.362" y2="98.354"/>
				
					<line style="fill:none;stroke:#A4D794;stroke-width:4.8245;stroke-linecap:round;stroke-miterlimit:10;" x1="341.392" y1="102.122" x2="352.357" y2="107.409"/>
			</g>
			<g>
				<path style="fill:#F8C64D;" d="M153.63,75.947L153.63,75.947c-3.216,2.144-4.155,6.451-2.122,9.74l2.492,4.031l3.609-1.263
					l3.609,1.263l2.492-4.031c2.033-3.288,1.094-7.595-2.122-9.74l0,0C159.178,74.34,156.039,74.34,153.63,75.947z"/>
				<path style="fill:#F8C64D;" d="M138.771,89.12L138.771,89.12c0.249,3.858,3.51,6.824,7.374,6.708l4.736-0.143l0.711-3.757
					l2.899-2.494l-2.245-4.173c-1.831-3.404-6.031-4.745-9.496-3.032v0C140.154,83.512,138.585,86.23,138.771,89.12z"/>
				<path style="fill:#F8C64D;" d="M142.75,108.575L142.75,108.575c3.465,1.713,7.665,0.373,9.496-3.032l2.245-4.173l-2.899-2.494
					l-0.711-3.757l-4.737-0.143c-3.864-0.116-7.125,2.85-7.373,6.708v0C138.585,104.573,140.154,107.291,142.75,108.575z"/>
				<path style="fill:#F8C64D;" d="M161.588,114.857L161.588,114.857c3.216-2.144,4.155-6.451,2.122-9.74l-2.492-4.031l-3.609,1.263
					l-3.609-1.263l-2.492,4.031c-2.033,3.288-1.094,7.595,2.122,9.74l0,0C156.039,116.463,159.178,116.463,161.588,114.857z"/>
				<path style="fill:#F8C64D;" d="M176.447,101.684L176.447,101.684c-0.249-3.858-3.51-6.824-7.374-6.708l-4.737,0.143
					l-0.711,3.757l-2.899,2.494l2.245,4.173c1.831,3.404,6.031,4.745,9.496,3.032v0
					C175.064,107.291,176.633,104.573,176.447,101.684z"/>
				<path style="fill:#F8C64D;" d="M172.468,82.229L172.468,82.229c-3.465-1.713-7.665-0.373-9.496,3.032l-2.245,4.173l2.899,2.494
					l0.711,3.757l4.736,0.143c3.864,0.116,7.125-2.85,7.374-6.708v0C176.633,86.23,175.064,83.512,172.468,82.229z"/>
				<circle style="fill:#ED6C32;" cx="157.609" cy="95.402" r="8.843"/>
			</g>
			<g>
				<path style="fill:#F8C64D;" d="M370.294,221.611L370.294,221.611c-4.802,2.205-6.993,7.818-4.954,12.693l2.499,5.976
					l5.144-0.931l4.602,2.48l4.228-4.907c3.449-4.003,3.106-10.019-0.776-13.603l0,0
					C378.129,220.633,373.891,219.959,370.294,221.611z"/>
				<path style="fill:#F8C64D;" d="M347.409,236.207L347.409,236.207c-0.492,5.261,3.274,9.965,8.515,10.637l6.425,0.824l1.765-4.92
					l4.448-2.745l-2.135-6.115c-1.742-4.988-7.124-7.699-12.169-6.13h0C350.479,228.933,347.777,232.266,347.409,236.207z"/>
				<path style="fill:#F8C64D;" d="M348.607,263.324L348.607,263.324c4.31,3.056,10.267,2.147,13.47-2.056l3.926-5.152l-3.378-3.989
					l-0.153-5.225l-6.363-1.208c-5.191-0.986-10.23,2.319-11.393,7.474h0C343.843,257.028,345.378,261.035,348.607,263.324z"/>
				<path style="fill:#F8C64D;" d="M372.69,275.845L372.69,275.845c4.802-2.205,6.993-7.818,4.954-12.693l-2.499-5.976l-5.143,0.931
					l-4.602-2.48l-4.228,4.907c-3.449,4.003-3.106,10.019,0.776,13.603h0C364.856,276.823,369.093,277.497,372.69,275.845z"/>
				<path style="fill:#F8C64D;" d="M395.575,261.249L395.575,261.249c0.492-5.261-3.274-9.965-8.515-10.637l-6.425-0.824
					l-1.765,4.92l-4.448,2.745l2.135,6.115c1.742,4.988,7.123,7.699,12.169,6.13l0,0
					C392.505,268.523,395.207,265.19,395.575,261.249z"/>
				<path style="fill:#F8C64D;" d="M394.377,234.132L394.377,234.132c-4.31-3.056-10.267-2.147-13.47,2.056l-3.926,5.152
					l3.378,3.989l0.153,5.225l6.363,1.208c5.191,0.986,10.23-2.319,11.393-7.474l0,0
					C399.142,240.428,397.606,236.421,394.377,234.132z"/>
				<path style="fill:#ED6C32;" d="M383.43,250.625c-1.048,6.593-7.242,11.089-13.835,10.041
					c-6.593-1.048-11.089-7.242-10.041-13.835c1.048-6.593,7.242-11.089,13.835-10.041
					C379.982,237.838,384.477,244.032,383.43,250.625z"/>
			</g>
			<g>
				<path style="fill:#A4D794;" d="M218.094,231.82c-8.653-3.194-18.753-1.328-25.711,5.615c-6.959,6.943-8.847,17.038-5.672,25.699
					c8.653,3.194,18.753,1.328,25.711-5.615C219.38,250.576,221.269,240.481,218.094,231.82z"/>
				
					<line style="fill:none;stroke:#75A64D;stroke-width:3.9061;stroke-linecap:round;stroke-miterlimit:10;" x1="211.389" y1="238.511" x2="182.447" y2="267.388"/>
				
					<line style="fill:none;stroke:#75A64D;stroke-width:3.9061;stroke-linecap:round;stroke-miterlimit:10;" x1="204.021" y1="236.656" x2="204.011" y2="245.546"/>
				
					<line style="fill:none;stroke:#75A64D;stroke-width:3.9061;stroke-linecap:round;stroke-miterlimit:10;" x1="210.469" y1="252.018" x2="198.388" y2="252.005"/>
				
					<line style="fill:none;stroke:#75A64D;stroke-width:3.9061;stroke-linecap:round;stroke-miterlimit:10;" x1="192.491" y1="246.781" x2="192.48" y2="256.637"/>
			</g>
			<g>
				<path style="fill:#A4D794;" d="M392.779,120.021c-8.401-3.101-18.206-1.289-24.961,5.451c-6.755,6.74-8.589,16.541-5.507,24.949
					c8.401,3.101,18.206,1.289,24.961-5.451C394.028,138.229,395.861,128.428,392.779,120.021z"/>
				
					<line style="fill:none;stroke:#75A64D;stroke-width:3.7922;stroke-linecap:round;stroke-miterlimit:10;" x1="386.27" y1="126.516" x2="358.172" y2="154.55"/>
				
					<line style="fill:none;stroke:#75A64D;stroke-width:3.7922;stroke-linecap:round;stroke-miterlimit:10;" x1="379.116" y1="124.715" x2="379.107" y2="133.345"/>
				
					<line style="fill:none;stroke:#75A64D;stroke-width:3.7922;stroke-linecap:round;stroke-miterlimit:10;" x1="385.377" y1="139.629" x2="373.647" y2="139.616"/>
				
					<line style="fill:none;stroke:#75A64D;stroke-width:3.7922;stroke-linecap:round;stroke-miterlimit:10;" x1="367.923" y1="134.545" x2="367.912" y2="144.113"/>
			</g>
			<g>
				<path style="fill:#A4D794;" d="M153.664,128.231c2.725,7.547,1.108,16.321-4.888,22.432c-5.996,6.111-14.737,7.895-22.335,5.315
					c-2.725-7.547-1.108-16.321,4.888-22.432C137.324,127.435,146.066,125.651,153.664,128.231z"/>
				<path style="fill:#A4D794;" d="M157.609,170.243c-3.41,7.263-10.758,12.324-19.318,12.406
					c-8.561,0.082-16.003-4.838-19.551-12.035c3.41-7.263,10.758-12.324,19.318-12.406
					C146.618,158.126,154.061,163.046,157.609,170.243z"/>
				<path style="fill:#A4D794;" d="M155.366,195.536c-3.41,7.263-10.758,12.324-19.318,12.406s-16.003-4.838-19.551-12.035
					c3.41-7.263,10.758-12.324,19.318-12.406C144.376,183.419,151.818,188.339,155.366,195.536z"/>
				<path style="fill:#A4D794;" d="M106.923,132.732c7.901,1.402,14.7,7.178,17.008,15.422c2.308,8.244-0.505,16.711-6.53,22.01
					c-7.901-1.402-14.7-7.178-17.008-15.422C98.085,146.499,100.898,138.032,106.923,132.732z"/>
				<path style="fill:#A4D794;" d="M92.203,166.74c7.832-1.743,16.33,0.975,21.629,7.699c5.299,6.724,5.958,15.621,2.433,22.829
					c-7.833,1.743-16.33-0.975-21.629-7.699C89.337,182.846,88.679,173.949,92.203,166.74z"/>
				<path style="fill:none;stroke:#75A64D;stroke-width:4.0737;stroke-linecap:round;stroke-miterlimit:10;" d="M147.443,134.572
					l-16.771,17.094c-19.17,19.539-18.871,50.92,0.668,70.09l0,0"/>
				<polyline style="fill:none;stroke:#75A64D;stroke-width:4.0737;stroke-linecap:round;stroke-miterlimit:10;" points="
					148.026,170.575 118.739,170.614 109.1,141.903 				"/>
				<polyline style="fill:none;stroke:#75A64D;stroke-width:4.0737;stroke-linecap:round;stroke-miterlimit:10;" points="
					146.584,195.554 116.497,195.906 95.33,170.237 				"/>
			</g>
			<g>
				
					<line style="fill:none;stroke:#75A64D;stroke-width:4.1439;stroke-linecap:round;stroke-miterlimit:10;" x1="202.221" y1="336.281" x2="192.321" y2="318.271"/>
				
					<line style="fill:none;stroke:#75A64D;stroke-width:4.1439;stroke-linecap:round;stroke-miterlimit:10;" x1="186.893" y1="326.318" x2="197.12" y2="327.001"/>
				
					<line style="fill:none;stroke:#75A64D;stroke-width:4.1439;stroke-linecap:round;stroke-miterlimit:10;" x1="199.64" y1="331.586" x2="203.355" y2="320.422"/>
				<path style="fill:#F8C64D;" d="M195.311,312.354c1.455,2.648,0.489,5.974-2.159,7.429c-2.648,1.456-5.974,0.489-7.429-2.158
					c-1.456-2.648-0.489-5.974,2.159-7.429S193.856,309.707,195.311,312.354z"/>
				<path style="fill:#F8C64D;" d="M208.952,315.663c1.455,2.648,0.489,5.974-2.159,7.429c-2.648,1.456-5.974,0.489-7.429-2.159
					c-1.456-2.648-0.489-5.974,2.158-7.429C204.17,312.049,207.496,313.016,208.952,315.663z"/>
				<path style="fill:#F8C64D;" d="M189.051,323.679c1.456,2.648,0.489,5.974-2.159,7.429c-2.648,1.456-5.974,0.489-7.429-2.159
					c-1.456-2.648-0.489-5.974,2.158-7.429C184.269,320.065,187.596,321.031,189.051,323.679z"/>
			</g>
			<g>
				
					<line style="fill:none;stroke:#75A64D;stroke-width:3.9683;stroke-linecap:round;stroke-miterlimit:10;" x1="211.876" y1="135.324" x2="218.485" y2="116.786"/>
				
					<line style="fill:none;stroke:#75A64D;stroke-width:3.9683;stroke-linecap:round;stroke-miterlimit:10;" x1="209.271" y1="118.013" x2="215.281" y2="125.773"/>
				
					<line style="fill:none;stroke:#75A64D;stroke-width:3.9683;stroke-linecap:round;stroke-miterlimit:10;" x1="213.599" y1="130.491" x2="223.957" y2="126.057"/>
				<path style="fill:#F8C64D;" d="M224.624,115.168c-0.972,2.725-3.968,4.147-6.694,3.175c-2.725-0.972-4.147-3.968-3.175-6.694
					c0.972-2.725,3.969-4.147,6.694-3.175C224.174,109.446,225.595,112.443,224.624,115.168z"/>
				<path style="fill:#F8C64D;" d="M230.923,127.042c-0.972,2.725-3.968,4.147-6.694,3.175c-2.725-0.972-4.147-3.968-3.175-6.694
					c0.972-2.725,3.968-4.147,6.694-3.175C230.473,121.32,231.894,124.317,230.923,127.042z"/>
				<path style="fill:#F8C64D;" d="M212.533,117.881c-0.972,2.725-3.968,4.147-6.694,3.175c-2.725-0.972-4.147-3.968-3.175-6.694
					c0.972-2.725,3.968-4.147,6.694-3.175C212.083,112.159,213.505,115.156,212.533,117.881z"/>
			</g>
			<circle style="fill:#ED6C32;" cx="291.93" cy="161.554" r="4.279"/>
			<circle style="fill:#ED6C32;" cx="253.673" cy="216.437" r="4.279"/>
			<circle style="fill:#ED6C32;" cx="273.253" cy="114.717" r="3.836"/>
			<circle style="fill:#ED6C32;" cx="320.292" cy="56.485" r="2.729"/>
			<path style="fill:#ED6C32;" d="M269.54,58.233c0,1.507-1.222,2.729-2.729,2.729c-1.507,0-2.729-1.222-2.729-2.729
				c0-1.507,1.222-2.729,2.729-2.729C268.318,55.504,269.54,56.725,269.54,58.233z"/>
			<path style="fill:#ED6C32;" d="M378.09,105.609c0,1.507-1.222,2.729-2.729,2.729c-1.507,0-2.729-1.222-2.729-2.729
				c0-1.507,1.222-2.729,2.729-2.729C376.868,102.88,378.09,104.102,378.09,105.609z"/>
			<path style="fill:#ED6C32;" d="M169.583,132.923c0,1.326-1.075,2.401-2.4,2.401c-1.326,0-2.4-1.075-2.4-2.401
				c0-1.326,1.075-2.4,2.4-2.4C168.508,130.523,169.583,131.598,169.583,132.923z"/>
			<path style="fill:#ED6C32;" d="M111.5,207.943c0,1.326-1.075,2.4-2.4,2.4c-1.326,0-2.4-1.075-2.4-2.4c0-1.326,1.075-2.4,2.4-2.4
				C110.425,205.542,111.5,206.617,111.5,207.943z"/>
			<path style="fill:#ED6C32;" d="M228.623,323.77c0,3.567-2.891,6.458-6.458,6.458c-3.567,0-6.458-2.891-6.458-6.458
				c0-3.567,2.891-6.458,6.458-6.458C225.732,317.312,228.623,320.203,228.623,323.77z"/>
			<path style="fill:#ED6C32;" d="M168,313.295c0,2.086-1.691,3.777-3.777,3.777c-2.086,0-3.777-1.691-3.777-3.777
				c0-2.086,1.691-3.777,3.777-3.777C166.309,309.518,168,311.209,168,313.295z"/>
			<circle style="fill:#ED6C32;" cx="117.531" cy="261.965" r="2.848"/>
			<path style="fill:#F8C64D;" d="M171.849,63.685c0,1.153-0.935,2.087-2.087,2.087s-2.087-0.934-2.087-2.087
				c0-1.153,0.935-2.087,2.087-2.087S171.849,62.532,171.849,63.685z"/>
			<circle style="fill:#F8C64D;" cx="215.836" cy="190.715" r="4.447"/>
			<path style="fill:#F8C64D;" d="M292.098,178.945c0,1.228-0.995,2.223-2.223,2.223s-2.223-0.995-2.223-2.223
				c0-1.228,0.995-2.223,2.223-2.223S292.098,177.717,292.098,178.945z"/>
			<path style="fill:#F8C64D;" d="M252.223,150.689c0,1.228-0.995,2.223-2.223,2.223c-1.228,0-2.223-0.995-2.223-2.223
				c0-1.228,0.995-2.223,2.223-2.223C251.228,148.466,252.223,149.461,252.223,150.689z"/>
			<path style="fill:#F8C64D;" d="M184.671,192.939c0,1.228-0.996,2.223-2.223,2.223c-1.228,0-2.223-0.995-2.223-2.223
				c0-1.228,0.995-2.223,2.223-2.223C183.675,190.715,184.671,191.711,184.671,192.939z"/>
			<path style="fill:#ED6C32;" d="M219.627,161.554c0,1.228-0.995,2.223-2.223,2.223c-1.228,0-2.223-0.995-2.223-2.223
				c0-1.228,0.995-2.223,2.223-2.223C218.632,159.331,219.627,160.326,219.627,161.554z"/>
			<path style="fill:#ED6C32;" d="M258.12,172.274c0,1.228-0.995,2.223-2.223,2.223c-1.228,0-2.223-0.995-2.223-2.223
				s0.995-2.223,2.223-2.223C257.125,170.051,258.12,171.046,258.12,172.274z"/>
			<path style="fill:#ED6C32;" d="M319.742,198.942c0,1.228-0.995,2.223-2.223,2.223c-1.228,0-2.223-0.995-2.223-2.223
				c0-1.228,0.995-2.223,2.223-2.223C318.747,196.719,319.742,197.714,319.742,198.942z"/>
			<path style="fill:#ED6C32;" d="M336.028,262.499c0,1.228-0.995,2.223-2.223,2.223s-2.223-0.996-2.223-2.223
				c0-1.228,0.996-2.223,2.223-2.223S336.028,261.272,336.028,262.499z"/>
			<path style="fill:#ED6C32;" d="M404.354,203.389c0,1.228-0.995,2.223-2.223,2.223c-1.228,0-2.223-0.995-2.223-2.223
				c0-1.228,0.995-2.223,2.223-2.223C403.359,201.166,404.354,202.161,404.354,203.389z"/>
			<path style="fill:#F8C64D;" d="M291.24,142.288c0,1.228-0.995,2.223-2.223,2.223s-2.223-0.995-2.223-2.223
				c0-1.228,0.996-2.223,2.223-2.223S291.24,141.06,291.24,142.288z"/>
			<circle style="fill:#F8C64D;" cx="162.779" cy="153.072" r="5.816"/>
			<circle style="fill:#F8C64D;" cx="316.712" cy="116.383" r="5.501"/>
			<path style="fill:#F8C64D;" d="M266.81,46.962c0,2.693-2.183,4.875-4.875,4.875s-4.875-2.183-4.875-4.875
				c0-2.693,2.183-4.875,4.875-4.875S266.81,44.27,266.81,46.962z"/>
			<path style="fill:#F8C64D;" d="M264.382,261.603c0,1.553-1.259,2.811-2.811,2.811c-1.553,0-2.811-1.259-2.811-2.811
				s1.259-2.811,2.811-2.811C263.123,258.792,264.382,260.051,264.382,261.603z"/>
			<path style="fill:#F8C64D;" d="M328.019,319.152c0,3.493-2.832,6.325-6.325,6.325s-6.325-2.832-6.325-6.325
				c0-3.493,2.832-6.325,6.325-6.325S328.019,315.659,328.019,319.152z"/>
			<path style="fill:#ED6C32;" d="M370.236,290.201c0,2.198-1.782,3.98-3.98,3.98c-2.198,0-3.98-1.782-3.98-3.98
				c0-2.198,1.782-3.98,3.98-3.98C368.454,286.221,370.236,288.003,370.236,290.201z"/>
			<path style="fill:#ED6C32;" d="M343.896,312.795c0,1.532-1.242,2.774-2.774,2.774c-1.532,0-2.774-1.242-2.774-2.774
				c0-1.532,1.242-2.774,2.774-2.774C342.654,310.021,343.896,311.263,343.896,312.795z"/>
			<path style="fill:#F8C64D;" d="M129.32,114.462h-0.09c-1.033,0-1.87-0.837-1.87-1.87l0,0c0-0.866-0.648-1.642-1.513-1.688
				c-0.922-0.048-1.685,0.685-1.685,1.597v0.09c0,1.033-0.837,1.87-1.87,1.87h-0.091c-0.883,0-1.599,0.716-1.599,1.599l0,0
				c0,0.883,0.716,1.599,1.599,1.599h0.091c1.033,0,1.87,0.837,1.87,1.87l0,0c0,0.866,0.648,1.642,1.513,1.688
				c0.922,0.048,1.685-0.685,1.685-1.597v-0.09c0-1.033,0.837-1.87,1.87-1.87h0.09c0.883,0,1.599-0.716,1.599-1.599v0
				C130.919,115.178,130.203,114.462,129.32,114.462z"/>
			<path style="fill:#F8C64D;" d="M244.235,340.246h-0.091c-1.033,0-1.87-0.837-1.87-1.87l0,0c0-0.866-0.648-1.642-1.513-1.688
				c-0.922-0.048-1.685,0.685-1.685,1.597v0.09c0,1.033-0.837,1.87-1.87,1.87h-0.09c-0.883,0-1.599,0.716-1.599,1.599l0,0
				c0,0.883,0.716,1.599,1.599,1.599h0.09c1.033,0,1.87,0.837,1.87,1.87l0,0c0,0.866,0.648,1.642,1.513,1.688
				c0.922,0.048,1.685-0.685,1.685-1.597v-0.09c0-1.033,0.837-1.87,1.87-1.87h0.091c0.883,0,1.599-0.716,1.599-1.599l0,0
				C245.834,340.962,245.118,340.246,244.235,340.246z"/>
			<path style="fill:#F8C64D;" d="M402.071,150.289h-0.091c-1.033,0-1.87-0.837-1.87-1.87l0,0c0-0.866-0.648-1.642-1.513-1.688
				c-0.922-0.048-1.685,0.685-1.685,1.597v0.09c0,1.033-0.837,1.87-1.87,1.87h-0.091c-0.883,0-1.599,0.716-1.599,1.599l0,0
				c0,0.883,0.716,1.599,1.599,1.599h0.091c1.033,0,1.87,0.837,1.87,1.87l0,0c0,0.866,0.648,1.642,1.513,1.688
				c0.922,0.048,1.685-0.685,1.685-1.597v-0.09c0-1.033,0.837-1.87,1.87-1.87h0.091c0.883,0,1.599-0.716,1.599-1.599l0,0
				C403.67,151.005,402.954,150.289,402.071,150.289z"/>
			<path style="fill:#F8C64D;" d="M248.29,113.614h-0.063c-0.713,0-1.29-0.578-1.29-1.29l0,0c0-0.598-0.447-1.133-1.044-1.165
				c-0.637-0.033-1.163,0.473-1.163,1.102v0.062c0,0.713-0.578,1.29-1.29,1.29h-0.063c-0.61,0-1.104,0.494-1.104,1.104l0,0
				c0,0.61,0.494,1.104,1.104,1.104h0.063c0.713,0,1.29,0.578,1.29,1.29l0,0c0,0.598,0.448,1.133,1.044,1.165
				c0.637,0.033,1.163-0.473,1.163-1.102v-0.063c0-0.713,0.578-1.29,1.29-1.29h0.063c0.609,0,1.104-0.494,1.104-1.104l0,0
				C249.394,114.108,248.9,113.614,248.29,113.614z"/>
			<path style="fill:#F8C64D;" d="M295.034,121.108h-0.062c-0.713,0-1.29-0.578-1.29-1.29l0,0c0-0.598-0.448-1.133-1.044-1.165
				c-0.637-0.033-1.163,0.473-1.163,1.102v0.062c0,0.713-0.578,1.29-1.29,1.29h-0.063c-0.609,0-1.104,0.494-1.104,1.104l0,0
				c0,0.609,0.494,1.104,1.104,1.104h0.063c0.713,0,1.29,0.578,1.29,1.29l0,0c0,0.598,0.447,1.133,1.044,1.165
				c0.636,0.033,1.163-0.473,1.163-1.102v-0.062c0-0.713,0.578-1.29,1.29-1.29h0.062c0.61,0,1.104-0.494,1.104-1.104l0,0
				C296.137,121.603,295.643,121.108,295.034,121.108z"/>
			<path style="fill:#F8C64D;" d="M252.57,190.498h-0.063c-0.713,0-1.29-0.578-1.29-1.29l0,0c0-0.598-0.447-1.133-1.044-1.165
				c-0.637-0.033-1.163,0.473-1.163,1.102v0.063c0,0.713-0.578,1.29-1.29,1.29h-0.063c-0.61,0-1.104,0.494-1.104,1.104l0,0
				c0,0.61,0.494,1.104,1.104,1.104h0.063c0.713,0,1.29,0.578,1.29,1.29l0,0c0,0.598,0.448,1.133,1.044,1.165
				c0.637,0.033,1.163-0.473,1.163-1.102v-0.063c0-0.713,0.578-1.29,1.29-1.29h0.063c0.609,0,1.104-0.494,1.104-1.104l0,0
				C253.673,190.992,253.179,190.498,252.57,190.498z"/>
			<path style="fill:#F8C64D;" d="M205.27,54.02h-0.099c-1.128,0-2.042-0.914-2.042-2.042l0,0c0-0.945-0.708-1.793-1.652-1.843
				c-1.007-0.053-1.84,0.748-1.84,1.744v0.099c0,1.127-0.914,2.042-2.042,2.042h-0.099c-0.964,0-1.746,0.782-1.746,1.746l0,0
				c0,0.964,0.782,1.746,1.746,1.746h0.099c1.128,0,2.042,0.914,2.042,2.042v0c0,0.945,0.708,1.793,1.652,1.843
				c1.007,0.053,1.84-0.748,1.84-1.744v-0.099c0-1.128,0.914-2.042,2.042-2.042h0.099c0.964,0,1.746-0.782,1.746-1.746l0,0
				C207.016,54.802,206.234,54.02,205.27,54.02z"/>
			<path style="fill:#F8C64D;" d="M141.533,283.052h-0.09c-1.033,0-1.87-0.837-1.87-1.87l0,0c0-0.866-0.648-1.642-1.513-1.688
				c-0.922-0.048-1.685,0.685-1.685,1.597v0.09c0,1.033-0.837,1.87-1.87,1.87h-0.09c-0.883,0-1.599,0.716-1.599,1.599l0,0
				c0,0.883,0.716,1.599,1.599,1.599h0.09c1.033,0,1.87,0.837,1.87,1.87l0,0c0,0.866,0.648,1.642,1.513,1.688
				c0.922,0.048,1.685-0.685,1.685-1.597v-0.09c0-1.033,0.837-1.87,1.87-1.87h0.09c0.883,0,1.599-0.716,1.599-1.599l0,0
				C143.132,283.768,142.416,283.052,141.533,283.052z"/>
			<path style="fill:#F8C64D;" d="M115.721,224.212h-0.09c-1.033,0-1.87-0.837-1.87-1.87l0,0c0-0.866-0.648-1.642-1.513-1.688
				c-0.922-0.048-1.685,0.685-1.685,1.597v0.09c0,1.033-0.837,1.87-1.87,1.87h-0.09c-0.883,0-1.599,0.716-1.599,1.599v0
				c0,0.883,0.716,1.599,1.599,1.599h0.09c1.033,0,1.87,0.837,1.87,1.87l0,0c0,0.866,0.649,1.642,1.513,1.688
				c0.922,0.048,1.685-0.685,1.685-1.597v-0.09c0-1.033,0.837-1.87,1.87-1.87h0.09c0.883,0,1.599-0.716,1.599-1.599l0,0
				C117.32,224.928,116.604,224.212,115.721,224.212z"/>
			<text transform="matrix(1 0 0 1 178.7861 105.6091)" style="fill:#166B48; font-family:'BebasNeueBold'; font-size:56.8708px;">E R R O R</text>
			<text transform="matrix(1 0 0 1 146.6631 305.24)" style="fill:#166B48; font-family:'BebasNeueBook'; font-size:43.7431px;">PAGE NOT FOUND</text>
		</g>
		<rect x="107.512" y="365.237" style="fill:none;" width="284.976" height="30.233"/>
		<text transform="matrix(1 0 0 1 126.0234 374.0379)"><tspan x="0" y="0" style="fill:#166B48; font-family:'OpenSans-Semibold'; font-size:11.5787px;">The page you’re looking for might have been </tspan><tspan x="-17.552" y="13.895" style="fill:#166B48; font-family:'OpenSans-Semibold'; font-size:11.5787px;">moved, removed, renamed, or might never existed</tspan></text>
		<rect x="190.636" y="412.55" style="fill:#166B48;" width="118.727" height="33.45"/>
		
			<text transform="matrix(1 0 0 1 205.6001 435.2043)" style="fill:#FFFFFF; font-family:'OpenSans-Semibold'; font-size:16.261px;">Back Home</text>
	</g>
</g>
<g id="Designed_By_Freepik">
	<g>
		<path style="fill:#424242;" d="M180.308,483.928v-0.161c-0.218,0.249-0.432,0.452-0.644,0.608
			c-0.212,0.157-0.441,0.276-0.689,0.356c-0.247,0.082-0.517,0.122-0.81,0.122c-0.388,0-0.748-0.082-1.078-0.246
			c-0.33-0.164-0.616-0.399-0.857-0.703c-0.243-0.305-0.425-0.663-0.549-1.075c-0.125-0.412-0.188-0.857-0.188-1.336
			c0-1.013,0.247-1.803,0.742-2.369c0.494-0.565,1.146-0.848,1.953-0.848c0.466,0,0.861,0.081,1.181,0.24
			c0.321,0.16,0.633,0.408,0.938,0.739v-2.392c0-0.333,0.066-0.584,0.199-0.754c0.132-0.17,0.321-0.255,0.567-0.255
			c0.245,0,0.434,0.078,0.566,0.234c0.133,0.157,0.199,0.386,0.199,0.691v7.147c0,0.309-0.071,0.54-0.214,0.694
			c-0.143,0.154-0.326,0.231-0.552,0.231c-0.222,0-0.405-0.08-0.549-0.24C180.38,484.453,180.308,484.225,180.308,483.928
			 M177.12,481.548c0,0.439,0.068,0.813,0.205,1.122c0.136,0.309,0.323,0.541,0.561,0.697c0.237,0.157,0.497,0.236,0.778,0.236
			c0.285,0,0.545-0.074,0.781-0.223c0.235-0.148,0.423-0.376,0.564-0.682c0.141-0.307,0.21-0.691,0.21-1.149
			c0-0.432-0.069-0.803-0.21-1.114c-0.141-0.31-0.331-0.547-0.57-0.712c-0.239-0.164-0.502-0.245-0.786-0.245
			c-0.297,0-0.562,0.084-0.796,0.251c-0.234,0.168-0.414,0.409-0.543,0.724C177.184,480.767,177.12,481.132,177.12,481.548"/>
		<path style="fill:#424242;" d="M187.454,481.958h-3.169c0.004,0.368,0.078,0.692,0.223,0.973c0.145,0.281,0.337,0.493,0.576,0.635
			c0.24,0.143,0.504,0.213,0.793,0.213c0.193,0,0.371-0.022,0.532-0.067c0.16-0.046,0.315-0.117,0.466-0.214
			c0.15-0.096,0.288-0.201,0.415-0.311c0.126-0.112,0.29-0.263,0.493-0.452c0.083-0.071,0.202-0.107,0.357-0.107
			c0.166,0,0.301,0.046,0.403,0.137c0.102,0.092,0.155,0.219,0.155,0.386c0,0.146-0.058,0.317-0.172,0.513
			c-0.116,0.196-0.289,0.384-0.519,0.564c-0.233,0.18-0.523,0.329-0.873,0.448c-0.35,0.119-0.753,0.178-1.208,0.178
			c-1.041,0-1.85-0.297-2.427-0.891c-0.578-0.593-0.867-1.399-0.867-2.416c0-0.479,0.071-0.924,0.214-1.333
			c0.143-0.41,0.351-0.76,0.623-1.053c0.273-0.293,0.609-0.517,1.009-0.674c0.4-0.156,0.843-0.234,1.33-0.234
			c0.633,0,1.176,0.132,1.629,0.4c0.454,0.267,0.793,0.612,1.018,1.035c0.225,0.424,0.339,0.856,0.339,1.294
			c0,0.408-0.117,0.672-0.35,0.793C188.207,481.897,187.878,481.958,187.454,481.958 M184.284,481.038h2.939
			c-0.039-0.554-0.19-0.969-0.449-1.244c-0.259-0.275-0.6-0.413-1.024-0.413c-0.404,0-0.735,0.139-0.994,0.418
			C184.497,480.078,184.34,480.491,184.284,481.038"/>
		<path style="fill:#424242;" d="M194.838,482.734c0,0.447-0.108,0.831-0.326,1.149c-0.217,0.319-0.539,0.56-0.965,0.724
			c-0.425,0.164-0.942,0.246-1.552,0.246c-0.582,0-1.081-0.089-1.496-0.267c-0.415-0.178-0.722-0.401-0.92-0.667
			c-0.198-0.268-0.297-0.535-0.297-0.805c0-0.178,0.063-0.33,0.19-0.456c0.127-0.126,0.288-0.19,0.481-0.19
			c0.17,0,0.3,0.042,0.391,0.125c0.091,0.083,0.179,0.2,0.261,0.35c0.166,0.29,0.366,0.504,0.597,0.648
			c0.231,0.142,0.547,0.214,0.947,0.214c0.324,0,0.59-0.073,0.799-0.217c0.208-0.145,0.311-0.31,0.311-0.496
			c0-0.285-0.107-0.492-0.324-0.623c-0.215-0.131-0.571-0.256-1.066-0.375c-0.558-0.138-1.012-0.284-1.362-0.436
			c-0.35-0.151-0.63-0.353-0.84-0.602c-0.21-0.25-0.315-0.557-0.315-0.92c0-0.324,0.097-0.631,0.29-0.92
			c0.194-0.288,0.48-0.519,0.859-0.691c0.378-0.173,0.833-0.259,1.367-0.259c0.42,0,0.797,0.043,1.131,0.131
			c0.335,0.086,0.614,0.204,0.838,0.35c0.224,0.145,0.394,0.308,0.51,0.486c0.117,0.178,0.175,0.352,0.175,0.523
			c0,0.185-0.063,0.338-0.186,0.457c-0.124,0.118-0.302,0.178-0.532,0.178c-0.166,0-0.308-0.048-0.424-0.144
			c-0.116-0.094-0.25-0.236-0.4-0.426c-0.123-0.158-0.266-0.285-0.433-0.381c-0.167-0.095-0.392-0.142-0.678-0.142
			c-0.293,0-0.536,0.062-0.73,0.187c-0.194,0.124-0.291,0.279-0.291,0.465c0,0.171,0.07,0.31,0.213,0.419
			c0.143,0.109,0.335,0.2,0.576,0.27c0.242,0.071,0.573,0.158,0.997,0.261c0.502,0.123,0.912,0.27,1.231,0.439
			c0.318,0.17,0.56,0.371,0.725,0.603C194.756,482.174,194.838,482.438,194.838,482.734"/>
		<path style="fill:#424242;" d="M196.494,477.512c-0.226,0-0.418-0.07-0.579-0.208c-0.16-0.138-0.24-0.334-0.24-0.588
			c0-0.23,0.082-0.418,0.246-0.567c0.163-0.149,0.355-0.223,0.573-0.223c0.21,0,0.396,0.067,0.558,0.202
			c0.163,0.135,0.244,0.33,0.244,0.588c0,0.25-0.079,0.444-0.238,0.585C196.899,477.441,196.711,477.512,196.494,477.512
			 M197.296,479.185v4.683c0,0.325-0.077,0.571-0.232,0.737c-0.154,0.167-0.35,0.249-0.587,0.249c-0.238,0-0.431-0.085-0.579-0.255
			c-0.149-0.17-0.223-0.414-0.223-0.731v-4.636c0-0.32,0.074-0.562,0.223-0.724c0.148-0.162,0.341-0.243,0.579-0.243
			c0.238,0,0.433,0.081,0.587,0.243C197.218,478.671,197.296,478.897,197.296,479.185"/>
		<path style="fill:#424242;" d="M204.395,479.453v4.707c0,0.538-0.058,1.001-0.173,1.39c-0.114,0.387-0.298,0.708-0.551,0.961
			c-0.254,0.253-0.585,0.441-0.994,0.563c-0.41,0.123-0.919,0.184-1.529,0.184c-0.558,0-1.056-0.078-1.496-0.234
			c-0.439-0.157-0.777-0.358-1.015-0.605c-0.237-0.247-0.356-0.502-0.356-0.763c0-0.198,0.068-0.359,0.203-0.483
			c0.134-0.125,0.297-0.187,0.486-0.187c0.237,0,0.445,0.105,0.624,0.314c0.086,0.107,0.176,0.215,0.27,0.324
			c0.093,0.109,0.197,0.202,0.309,0.28c0.113,0.076,0.249,0.134,0.407,0.171c0.158,0.037,0.341,0.056,0.546,0.056
			c0.419,0,0.745-0.058,0.977-0.175c0.231-0.117,0.394-0.28,0.487-0.49c0.093-0.209,0.147-0.433,0.163-0.673
			c0.016-0.24,0.028-0.624,0.036-1.155c-0.25,0.349-0.537,0.615-0.864,0.797c-0.326,0.182-0.715,0.273-1.166,0.273
			c-0.542,0-1.016-0.139-1.422-0.416c-0.405-0.277-0.717-0.665-0.934-1.163c-0.218-0.499-0.326-1.074-0.326-1.727
			c0-0.487,0.066-0.927,0.198-1.318c0.133-0.392,0.322-0.723,0.568-0.992c0.245-0.269,0.528-0.472,0.848-0.608
			c0.321-0.136,0.673-0.204,1.057-0.204c0.459,0,0.857,0.089,1.194,0.264c0.336,0.177,0.649,0.453,0.938,0.829v-0.22
			c0-0.281,0.069-0.499,0.208-0.654c0.139-0.153,0.317-0.231,0.535-0.231c0.313,0,0.52,0.102,0.623,0.306
			C204.343,478.774,204.395,479.069,204.395,479.453 M199.699,481.506c0,0.657,0.143,1.154,0.43,1.49
			c0.287,0.337,0.658,0.505,1.113,0.505c0.269,0,0.523-0.073,0.762-0.217c0.24-0.145,0.435-0.362,0.586-0.653
			c0.15-0.291,0.225-0.643,0.225-1.06c0-0.66-0.145-1.176-0.436-1.543c-0.291-0.368-0.674-0.552-1.149-0.552
			c-0.463,0-0.834,0.176-1.113,0.529C199.839,480.356,199.699,480.858,199.699,481.506"/>
		<path style="fill:#424242;" d="M206.97,479.161v0.196c0.285-0.376,0.596-0.652,0.935-0.828c0.338-0.176,0.727-0.264,1.166-0.264
			c0.427,0,0.809,0.093,1.146,0.28c0.336,0.186,0.588,0.449,0.754,0.789c0.108,0.198,0.176,0.413,0.207,0.642
			c0.032,0.23,0.049,0.522,0.049,0.879v3.015c0,0.325-0.075,0.571-0.223,0.737c-0.149,0.166-0.341,0.249-0.579,0.249
			c-0.242,0-0.438-0.085-0.588-0.255c-0.151-0.17-0.225-0.414-0.225-0.731v-2.701c0-0.534-0.075-0.943-0.223-1.226
			c-0.149-0.283-0.444-0.425-0.887-0.425c-0.289,0-0.552,0.086-0.789,0.258c-0.237,0.173-0.412,0.41-0.522,0.71
			c-0.079,0.242-0.119,0.692-0.119,1.353v2.03c0,0.328-0.076,0.576-0.228,0.74c-0.152,0.164-0.349,0.246-0.59,0.246
			c-0.234,0-0.426-0.085-0.576-0.255c-0.15-0.17-0.226-0.414-0.226-0.731v-4.683c0-0.309,0.068-0.54,0.202-0.692
			c0.135-0.151,0.319-0.228,0.552-0.228c0.143,0,0.271,0.034,0.387,0.101c0.114,0.068,0.206,0.169,0.276,0.302
			C206.936,478.803,206.97,478.968,206.97,479.161"/>
		<path style="fill:#424242;" d="M216.829,481.958h-3.17c0.004,0.368,0.078,0.692,0.223,0.973c0.144,0.281,0.336,0.493,0.576,0.635
			c0.239,0.143,0.503,0.213,0.792,0.213c0.194,0,0.371-0.022,0.532-0.067c0.159-0.046,0.315-0.117,0.466-0.214
			c0.149-0.096,0.288-0.201,0.416-0.311c0.126-0.112,0.29-0.263,0.492-0.452c0.083-0.071,0.202-0.107,0.356-0.107
			c0.166,0,0.301,0.046,0.404,0.137c0.103,0.092,0.154,0.219,0.154,0.386c0,0.146-0.058,0.317-0.172,0.513
			c-0.115,0.196-0.288,0.384-0.519,0.564c-0.232,0.18-0.522,0.329-0.872,0.448c-0.35,0.119-0.753,0.178-1.208,0.178
			c-1.041,0-1.85-0.297-2.428-0.891c-0.578-0.593-0.866-1.399-0.866-2.416c0-0.479,0.071-0.924,0.213-1.333
			c0.143-0.41,0.351-0.76,0.624-1.053c0.272-0.293,0.609-0.517,1.009-0.674c0.399-0.156,0.843-0.234,1.33-0.234
			c0.633,0,1.175,0.132,1.629,0.4c0.453,0.267,0.793,0.612,1.019,1.035c0.225,0.424,0.338,0.856,0.338,1.294
			c0,0.408-0.117,0.672-0.351,0.793C217.581,481.897,217.253,481.958,216.829,481.958 M213.66,481.038h2.938
			c-0.039-0.554-0.189-0.969-0.448-1.244c-0.259-0.275-0.601-0.413-1.024-0.413c-0.404,0-0.736,0.139-0.995,0.418
			C213.871,480.078,213.715,480.491,213.66,481.038"/>
		<path style="fill:#424242;" d="M223.436,483.928v-0.161c-0.218,0.249-0.432,0.452-0.645,0.608
			c-0.212,0.157-0.44,0.276-0.688,0.356c-0.247,0.082-0.518,0.122-0.81,0.122c-0.389,0-0.747-0.082-1.077-0.246
			c-0.331-0.164-0.617-0.399-0.858-0.703c-0.241-0.305-0.424-0.663-0.549-1.075c-0.125-0.412-0.188-0.857-0.188-1.336
			c0-1.013,0.248-1.803,0.743-2.369c0.494-0.565,1.146-0.848,1.953-0.848c0.467,0,0.86,0.081,1.181,0.24
			c0.32,0.16,0.633,0.408,0.938,0.739v-2.392c0-0.333,0.066-0.584,0.199-0.754c0.132-0.17,0.322-0.255,0.568-0.255
			c0.245,0,0.434,0.078,0.566,0.234c0.132,0.157,0.2,0.386,0.2,0.691v7.147c0,0.309-0.072,0.54-0.214,0.694
			c-0.143,0.154-0.326,0.231-0.552,0.231c-0.222,0-0.405-0.08-0.549-0.24C223.508,484.453,223.436,484.225,223.436,483.928
			 M220.248,481.548c0,0.439,0.068,0.813,0.204,1.122c0.137,0.309,0.324,0.541,0.562,0.697c0.237,0.157,0.496,0.236,0.777,0.236
			c0.285,0,0.546-0.074,0.781-0.223c0.235-0.148,0.423-0.376,0.564-0.682c0.141-0.307,0.211-0.691,0.211-1.149
			c0-0.432-0.07-0.803-0.211-1.114c-0.14-0.31-0.33-0.547-0.57-0.712c-0.239-0.164-0.501-0.245-0.786-0.245
			c-0.296,0-0.562,0.084-0.796,0.251c-0.233,0.168-0.414,0.409-0.543,0.724C220.312,480.767,220.248,481.132,220.248,481.548"/>
		<path style="fill:#424242;" d="M230.059,476.781v2.475c0.305-0.316,0.616-0.559,0.933-0.727c0.316-0.168,0.708-0.252,1.175-0.252
			c0.538,0,1.01,0.128,1.416,0.382c0.405,0.256,0.72,0.626,0.944,1.111c0.223,0.484,0.336,1.06,0.336,1.725
			c0,0.491-0.063,0.94-0.187,1.35c-0.125,0.409-0.306,0.765-0.543,1.065c-0.238,0.301-0.525,0.534-0.864,0.698
			c-0.339,0.164-0.712,0.246-1.119,0.246c-0.249,0-0.484-0.029-0.703-0.089c-0.22-0.059-0.408-0.137-0.561-0.234
			c-0.154-0.096-0.286-0.197-0.395-0.3c-0.109-0.103-0.253-0.258-0.431-0.463v0.161c0,0.304-0.073,0.535-0.219,0.692
			c-0.146,0.156-0.332,0.234-0.558,0.234c-0.229,0-0.412-0.077-0.549-0.234c-0.137-0.157-0.205-0.388-0.205-0.692v-7.077
			c0-0.328,0.066-0.577,0.199-0.745c0.132-0.168,0.318-0.252,0.555-0.252c0.25,0,0.441,0.08,0.576,0.24
			C229.992,476.256,230.059,476.484,230.059,476.781 M230.136,481.595c0,0.645,0.148,1.14,0.443,1.486
			c0.295,0.347,0.682,0.521,1.161,0.521c0.407,0,0.759-0.177,1.053-0.532c0.295-0.355,0.442-0.862,0.442-1.523
			c0-0.427-0.061-0.796-0.184-1.104c-0.123-0.309-0.297-0.547-0.522-0.715c-0.226-0.168-0.49-0.252-0.789-0.252
			c-0.309,0-0.585,0.084-0.826,0.252c-0.242,0.168-0.431,0.411-0.57,0.73C230.206,480.776,230.136,481.156,230.136,481.595"/>
		<path style="fill:#424242;" d="M236.963,485.056l0.148-0.362l-1.995-5.022c-0.122-0.288-0.184-0.499-0.184-0.629
			c0-0.139,0.036-0.267,0.107-0.385c0.072-0.119,0.17-0.214,0.294-0.285c0.125-0.072,0.255-0.107,0.389-0.107
			c0.233,0,0.409,0.074,0.528,0.223c0.119,0.148,0.224,0.361,0.314,0.638l1.372,3.989l1.3-3.71c0.103-0.3,0.196-0.536,0.279-0.706
			c0.083-0.17,0.171-0.285,0.264-0.344c0.093-0.06,0.225-0.09,0.395-0.09c0.123,0,0.24,0.032,0.354,0.098
			c0.113,0.065,0.199,0.153,0.261,0.264c0.061,0.111,0.092,0.227,0.092,0.35c-0.016,0.074-0.041,0.182-0.077,0.321
			c-0.036,0.138-0.079,0.28-0.13,0.421l-2.114,5.533c-0.182,0.486-0.36,0.868-0.534,1.145c-0.175,0.277-0.404,0.491-0.692,0.638
			c-0.287,0.149-0.674,0.223-1.161,0.223c-0.475,0-0.831-0.051-1.068-0.154c-0.238-0.104-0.356-0.291-0.356-0.565
			c0-0.185,0.055-0.33,0.169-0.43c0.112-0.101,0.279-0.153,0.501-0.153c0.087,0,0.172,0.012,0.255,0.037
			c0.103,0.023,0.192,0.035,0.267,0.035c0.186,0,0.332-0.027,0.439-0.084c0.107-0.055,0.202-0.151,0.288-0.288
			C236.754,485.522,236.852,485.321,236.963,485.056"/>
		<path style="fill:#424242;" d="M260.439,478.405h0.386v-0.486c0-0.509,0.063-0.911,0.192-1.211
			c0.128-0.299,0.347-0.516,0.654-0.653c0.306-0.135,0.727-0.204,1.26-0.204c0.95,0,1.421,0.229,1.421,0.696
			c0,0.149-0.049,0.278-0.15,0.384c-0.097,0.106-0.214,0.16-0.349,0.16c-0.063,0-0.174-0.012-0.33-0.037
			c-0.149-0.021-0.283-0.035-0.39-0.035c-0.292,0-0.479,0.088-0.566,0.26c-0.079,0.172-0.122,0.418-0.122,0.74v0.386h0.396
			c0.619,0,0.925,0.186,0.925,0.56c0,0.262-0.079,0.432-0.245,0.503c-0.164,0.072-0.39,0.107-0.681,0.107h-0.396v4.294
			c0,0.319-0.075,0.563-0.231,0.73c-0.151,0.17-0.347,0.254-0.59,0.254c-0.229,0-0.419-0.084-0.574-0.254
			c-0.153-0.167-0.228-0.411-0.228-0.73v-4.294h-0.446c-0.242,0-0.426-0.052-0.558-0.164c-0.131-0.107-0.197-0.25-0.197-0.424
			C259.625,478.597,259.897,478.405,260.439,478.405"/>
		<path style="fill:#424242;" d="M265.745,482.514v1.355c0,0.327-0.083,0.574-0.234,0.737c-0.154,0.166-0.349,0.247-0.585,0.247
			c-0.239,0-0.43-0.082-0.579-0.25c-0.148-0.165-0.226-0.41-0.226-0.734v-4.514c0-0.729,0.262-1.093,0.788-1.093
			c0.272,0,0.465,0.084,0.584,0.256c0.118,0.17,0.184,0.421,0.198,0.755c0.193-0.334,0.39-0.585,0.593-0.755
			c0.208-0.172,0.477-0.256,0.819-0.256c0.343,0,0.669,0.084,0.991,0.256c0.322,0.17,0.482,0.397,0.482,0.677
			c0,0.197-0.069,0.363-0.204,0.488c-0.137,0.131-0.284,0.195-0.441,0.195c-0.062,0-0.207-0.039-0.432-0.112
			c-0.228-0.072-0.431-0.109-0.602-0.109c-0.238,0-0.433,0.064-0.583,0.187c-0.151,0.128-0.269,0.31-0.352,0.553
			c-0.081,0.247-0.137,0.541-0.171,0.878C265.76,481.615,265.745,482.028,265.745,482.514"/>
		<path style="fill:#424242;" d="M273.196,481.956h-3.171c0.006,0.368,0.077,0.694,0.222,0.974c0.148,0.279,0.338,0.491,0.578,0.635
			c0.24,0.142,0.503,0.212,0.793,0.212c0.194,0,0.371-0.021,0.531-0.07c0.159-0.043,0.315-0.116,0.466-0.212
			c0.151-0.096,0.287-0.2,0.415-0.313c0.126-0.11,0.291-0.261,0.494-0.45c0.083-0.071,0.202-0.109,0.354-0.109
			c0.168,0,0.301,0.046,0.406,0.139c0.104,0.092,0.153,0.219,0.153,0.386c0,0.147-0.056,0.317-0.168,0.512
			c-0.117,0.198-0.289,0.385-0.523,0.566c-0.234,0.179-0.524,0.33-0.873,0.446c-0.35,0.119-0.754,0.179-1.208,0.179
			c-1.044,0-1.853-0.295-2.429-0.889c-0.577-0.595-0.869-1.401-0.869-2.418c0-0.479,0.073-0.924,0.217-1.334
			c0.141-0.411,0.349-0.76,0.624-1.055c0.273-0.294,0.606-0.518,1.008-0.674c0.398-0.156,0.841-0.234,1.33-0.234
			c0.631,0,1.175,0.134,1.628,0.404c0.453,0.264,0.797,0.61,1.019,1.034c0.225,0.425,0.339,0.855,0.339,1.296
			c0,0.405-0.118,0.669-0.352,0.791C273.947,481.896,273.62,481.956,273.196,481.956 M270.024,481.035h2.938
			c-0.038-0.553-0.186-0.969-0.446-1.242c-0.261-0.276-0.599-0.412-1.025-0.412c-0.404,0-0.735,0.137-0.995,0.418
			C270.238,480.078,270.079,480.489,270.024,481.035"/>
		<path style="fill:#424242;" d="M279.938,481.956h-3.17c0.004,0.368,0.078,0.694,0.222,0.974c0.145,0.279,0.336,0.491,0.575,0.635
			c0.239,0.142,0.504,0.212,0.795,0.212c0.192,0,0.371-0.021,0.528-0.07c0.161-0.043,0.315-0.116,0.469-0.212
			c0.151-0.096,0.288-0.2,0.415-0.313c0.125-0.11,0.29-0.261,0.493-0.45c0.084-0.071,0.204-0.109,0.355-0.109
			c0.168,0,0.303,0.046,0.406,0.139c0.104,0.092,0.151,0.219,0.151,0.386c0,0.147-0.054,0.317-0.171,0.512
			c-0.11,0.198-0.285,0.385-0.519,0.566c-0.231,0.179-0.525,0.33-0.871,0.446c-0.349,0.119-0.755,0.179-1.21,0.179
			c-1.042,0-1.849-0.295-2.429-0.889c-0.577-0.595-0.867-1.401-0.867-2.418c0-0.479,0.073-0.924,0.217-1.334
			c0.142-0.411,0.35-0.76,0.623-1.055c0.272-0.294,0.607-0.518,1.009-0.674c0.398-0.156,0.844-0.234,1.331-0.234
			c0.63,0,1.174,0.134,1.633,0.404c0.45,0.264,0.791,0.61,1.012,1.034c0.225,0.425,0.341,0.855,0.341,1.296
			c0,0.405-0.12,0.669-0.352,0.791C280.688,481.896,280.36,481.956,279.938,481.956 M276.767,481.035h2.938
			c-0.039-0.553-0.19-0.969-0.447-1.242c-0.263-0.276-0.601-0.412-1.026-0.412c-0.404,0-0.735,0.137-0.995,0.418
			C276.979,480.078,276.82,480.489,276.767,481.035"/>
		<path style="fill:#424242;" d="M283.487,479.174v0.194c0.304-0.375,0.621-0.651,0.953-0.828c0.325-0.178,0.699-0.267,1.115-0.267
			c0.497,0,0.96,0.13,1.38,0.386c0.419,0.259,0.749,0.635,0.992,1.129c0.243,0.497,0.366,1.081,0.366,1.758
			c0,0.497-0.07,0.957-0.21,1.376c-0.139,0.417-0.336,0.767-0.58,1.05c-0.247,0.281-0.535,0.501-0.869,0.654
			c-0.339,0.151-0.694,0.227-1.079,0.227c-0.462,0-0.853-0.093-1.166-0.28c-0.314-0.182-0.614-0.458-0.901-0.816v2.433
			c0,0.71-0.26,1.069-0.777,1.069c-0.306,0-0.506-0.091-0.608-0.274c-0.094-0.187-0.145-0.453-0.145-0.807v-6.997
			c0-0.309,0.066-0.537,0.2-0.692c0.135-0.15,0.32-0.228,0.553-0.228c0.23,0,0.416,0.078,0.559,0.234
			C283.417,478.654,283.487,478.877,283.487,479.174 M286.665,481.528c0-0.427-0.067-0.796-0.197-1.102
			c-0.13-0.308-0.312-0.542-0.541-0.705c-0.229-0.164-0.489-0.248-0.77-0.248c-0.447,0-0.825,0.178-1.131,0.527
			c-0.308,0.354-0.462,0.872-0.462,1.558c0,0.642,0.153,1.146,0.46,1.504c0.305,0.358,0.679,0.537,1.133,0.537
			c0.268,0,0.519-0.078,0.748-0.233c0.232-0.158,0.416-0.391,0.553-0.704C286.596,482.35,286.665,481.971,286.665,481.528"/>
		<path style="fill:#424242;" d="M289.925,477.507c-0.227,0-0.418-0.071-0.577-0.209c-0.163-0.139-0.243-0.333-0.243-0.585
			c0-0.23,0.082-0.419,0.248-0.569c0.164-0.146,0.353-0.222,0.571-0.222c0.213,0,0.397,0.067,0.558,0.2
			c0.162,0.137,0.244,0.334,0.244,0.591c0,0.25-0.079,0.444-0.236,0.585C290.333,477.436,290.145,477.507,289.925,477.507
			 M290.727,479.181v4.689c0,0.322-0.077,0.568-0.231,0.732c-0.156,0.168-0.351,0.25-0.588,0.25c-0.238,0-0.428-0.083-0.58-0.254
			c-0.146-0.173-0.223-0.416-0.223-0.729v-4.642c0-0.319,0.076-0.559,0.223-0.721c0.152-0.165,0.342-0.245,0.58-0.245
			c0.237,0,0.432,0.079,0.588,0.245C290.651,478.669,290.727,478.895,290.727,479.181"/>
		<path style="fill:#424242;" d="M295.953,484.113l-1.428-2.354l-0.88,0.83v1.291c0,0.312-0.083,0.551-0.249,0.718
			c-0.16,0.17-0.353,0.254-0.566,0.254c-0.25,0-0.447-0.082-0.588-0.25c-0.141-0.164-0.214-0.41-0.214-0.734v-6.915
			c0-0.358,0.071-0.632,0.207-0.821c0.139-0.19,0.341-0.283,0.596-0.283c0.249,0,0.446,0.085,0.593,0.257
			c0.147,0.169,0.222,0.421,0.222,0.751v3.934l1.823-1.914c0.227-0.235,0.395-0.4,0.517-0.487c0.118-0.087,0.262-0.13,0.43-0.13
			c0.204,0,0.372,0.065,0.51,0.193c0.132,0.129,0.2,0.291,0.2,0.483c0,0.237-0.221,0.555-0.66,0.951l-0.861,0.789l1.662,2.614
			c0.121,0.196,0.212,0.34,0.265,0.441c0.053,0.1,0.081,0.2,0.081,0.289c0,0.258-0.071,0.459-0.213,0.61
			c-0.14,0.148-0.326,0.221-0.553,0.221c-0.198,0-0.353-0.051-0.459-0.16C296.282,484.585,296.134,484.391,295.953,484.113"/>
		<path style="fill:#424242;" d="M299.474,484.853c-0.245,0-0.455-0.079-0.633-0.238c-0.178-0.156-0.268-0.379-0.268-0.665
			c0-0.241,0.086-0.449,0.257-0.622c0.171-0.174,0.379-0.262,0.63-0.262c0.248,0,0.46,0.087,0.638,0.258
			c0.175,0.172,0.264,0.383,0.264,0.626c0,0.283-0.09,0.505-0.264,0.662C299.919,484.774,299.712,484.853,299.474,484.853"/>
		<path style="fill:#424242;" d="M307.536,482.847c0,0.2-0.061,0.417-0.182,0.646c-0.119,0.231-0.305,0.448-0.554,0.656
			c-0.246,0.207-0.557,0.376-0.934,0.502c-0.375,0.126-0.799,0.192-1.268,0.192c-1.005,0-1.786-0.294-2.349-0.876
			c-0.559-0.585-0.841-1.368-0.841-2.35c0-0.667,0.128-1.254,0.388-1.765c0.254-0.509,0.627-0.905,1.113-1.184
			c0.486-0.28,1.072-0.419,1.746-0.419c0.421,0,0.805,0.062,1.157,0.185c0.351,0.122,0.645,0.282,0.891,0.474
			c0.242,0.197,0.429,0.402,0.557,0.62c0.129,0.22,0.192,0.425,0.192,0.617c0,0.192-0.071,0.357-0.214,0.492
			c-0.148,0.134-0.322,0.203-0.524,0.203c-0.137,0-0.249-0.035-0.338-0.104c-0.09-0.07-0.19-0.181-0.3-0.339
			c-0.198-0.298-0.404-0.526-0.623-0.674c-0.214-0.152-0.487-0.226-0.82-0.226c-0.476,0-0.865,0.186-1.159,0.561
			c-0.292,0.372-0.439,0.887-0.439,1.534c0,0.305,0.038,0.587,0.114,0.842c0.073,0.254,0.182,0.472,0.325,0.652
			c0.144,0.179,0.315,0.315,0.516,0.409c0.203,0.096,0.426,0.141,0.665,0.141c0.325,0,0.604-0.075,0.836-0.225
			c0.235-0.151,0.439-0.38,0.616-0.689c0.098-0.182,0.204-0.323,0.318-0.427c0.113-0.102,0.256-0.156,0.422-0.156
			c0.198,0,0.363,0.077,0.492,0.227C307.47,482.516,307.536,482.678,307.536,482.847"/>
		<path style="fill:#424242;" d="M314.531,481.559c0,0.482-0.077,0.928-0.223,1.337c-0.154,0.408-0.37,0.759-0.656,1.049
			c-0.284,0.293-0.626,0.518-1.02,0.675c-0.399,0.155-0.843,0.234-1.336,0.234c-0.491,0-0.933-0.079-1.326-0.239
			c-0.389-0.156-0.732-0.384-1.016-0.676c-0.288-0.298-0.506-0.646-0.657-1.048c-0.144-0.402-0.22-0.846-0.22-1.332
			c0-0.491,0.077-0.941,0.225-1.349c0.151-0.409,0.368-0.757,0.649-1.046c0.281-0.289,0.621-0.51,1.019-0.669
			c0.402-0.156,0.843-0.234,1.326-0.234c0.49,0,0.936,0.078,1.336,0.239c0.398,0.157,0.739,0.384,1.027,0.675
			c0.286,0.296,0.502,0.643,0.65,1.044C314.455,480.627,314.531,481.07,314.531,481.559 M312.903,481.559
			c0-0.662-0.146-1.176-0.436-1.543c-0.289-0.372-0.681-0.556-1.171-0.556c-0.317,0-0.597,0.083-0.84,0.247
			c-0.242,0.164-0.425,0.406-0.556,0.728c-0.131,0.321-0.197,0.696-0.197,1.124c0,0.424,0.064,0.792,0.193,1.108
			c0.13,0.319,0.314,0.561,0.554,0.729c0.241,0.167,0.522,0.253,0.846,0.253c0.49,0,0.882-0.185,1.171-0.557
			C312.757,482.722,312.903,482.21,312.903,481.559"/>
		<path style="fill:#424242;" d="M320.713,481.678v2.154c0,0.342-0.075,0.595-0.231,0.767c-0.156,0.17-0.357,0.255-0.612,0.255
			c-0.245,0-0.446-0.085-0.594-0.255c-0.154-0.173-0.233-0.425-0.233-0.767v-2.582c0-0.408-0.012-0.726-0.039-0.953
			c-0.029-0.221-0.105-0.41-0.227-0.552c-0.123-0.147-0.317-0.22-0.581-0.22c-0.532,0-0.88,0.181-1.048,0.551
			c-0.168,0.36-0.254,0.883-0.254,1.567v2.189c0,0.336-0.077,0.591-0.227,0.765c-0.156,0.171-0.354,0.258-0.603,0.258
			c-0.247,0-0.447-0.087-0.604-0.258c-0.157-0.173-0.235-0.428-0.235-0.765v-4.637c0-0.306,0.069-0.538,0.209-0.694
			c0.143-0.161,0.328-0.239,0.555-0.239c0.223,0,0.408,0.077,0.558,0.222c0.147,0.149,0.221,0.354,0.221,0.615v0.153
			c0.284-0.334,0.585-0.582,0.903-0.738c0.322-0.162,0.676-0.241,1.07-0.241c0.407,0,0.757,0.082,1.048,0.244
			c0.294,0.163,0.534,0.409,0.726,0.735c0.275-0.33,0.568-0.577,0.881-0.738c0.313-0.16,0.657-0.241,1.039-0.241
			c0.441,0,0.825,0.089,1.146,0.262c0.318,0.174,0.557,0.425,0.716,0.747c0.139,0.295,0.206,0.756,0.206,1.385v3.164
			c0,0.342-0.076,0.595-0.229,0.767c-0.154,0.17-0.359,0.255-0.612,0.255c-0.247,0-0.446-0.087-0.603-0.258
			c-0.156-0.173-0.235-0.428-0.235-0.765v-2.726c0-0.349-0.015-0.627-0.044-0.836c-0.029-0.211-0.11-0.388-0.239-0.529
			c-0.132-0.142-0.332-0.215-0.596-0.215c-0.214,0-0.417,0.066-0.608,0.192c-0.192,0.124-0.343,0.298-0.451,0.508
			C320.774,480.5,320.713,480.984,320.713,481.678"/>
		<path style="fill:#424242;" d="M245.272,481.166c-0.001-0.003-0.001-0.006-0.001-0.011
			C245.271,481.16,245.271,481.163,245.272,481.166"/>
		<path style="fill:#424242;" d="M245.354,481.685h0.002c-0.031-0.148-0.055-0.294-0.075-0.439
			C245.301,481.392,245.325,481.539,245.354,481.685"/>
		<path style="fill:#424242;" d="M245.891,483.189c-0.004-0.006-0.007-0.013-0.011-0.021
			C245.883,483.176,245.887,483.182,245.891,483.189"/>
		<path style="fill:#424242;" d="M245.839,483.088c-0.014-0.027-0.027-0.056-0.04-0.084
			C245.812,483.034,245.826,483.061,245.839,483.088"/>
		<path style="fill:#424242;" d="M245.505,482.264c0.079,0.25,0.175,0.493,0.286,0.724c-0.113-0.236-0.206-0.479-0.284-0.724
			H245.505z"/>
		<path style="fill:#424242;" d="M251.546,474.956c0.313,0,0.544,0.025,0.81,0.07l0.074-0.477c0,0-0.731-0.225-1.693-0.146
			l-0.076-0.259c0.299-0.063,0.524-0.329,0.524-0.646c0-0.364-0.296-0.659-0.661-0.659c-0.364,0-0.659,0.295-0.659,0.659
			c0,0.317,0.224,0.583,0.522,0.646l0.083,0.289c-1.021,0.14-1.834,0.539-1.834,0.539l0.145,0.441
			c0.617-0.206,1.154-0.331,1.64-0.383C250.895,474.978,251.254,474.956,251.546,474.956"/>
		<path style="fill:#424242;" d="M245.878,477.368l0.004-0.005c0.024-0.031,0.048-0.061,0.071-0.089l-0.196-0.141l-0.305-0.223
			c-0.017,0.024-0.497,0.465-0.876,1.28c-0.016-0.026-0.035-0.051-0.056-0.074c-0.113-0.124-0.272-0.187-0.474-0.184h-0.009
			c-0.125,0-0.211-0.041-0.267-0.092c0.056-0.071,0.09-0.16,0.09-0.258c0-0.23-0.187-0.418-0.419-0.418
			c-0.231,0-0.417,0.188-0.417,0.418c0,0.231,0.187,0.418,0.417,0.418c0.036,0,0.071-0.006,0.104-0.013
			c0.103,0.114,0.266,0.214,0.505,0.209c0.122-0.001,0.213,0.031,0.273,0.097c0.069,0.076,0.093,0.185,0.1,0.267
			c-0.001,0.001-0.001,0.003-0.002,0.003c-0.273,0.743-0.194,1.669-0.194,1.669l0.661,0.026c0.014-0.337,0.062-0.927,0.233-1.394
			C245.45,477.958,245.862,477.391,245.878,477.368"/>
		<path style="fill:#424242;" d="M257.295,475.508c-0.23,0-0.418,0.187-0.418,0.418c0,0.036,0.006,0.07,0.015,0.103
			c-0.114,0.104-0.214,0.267-0.21,0.507c0.001,0.123-0.03,0.212-0.097,0.272c-0.053,0.047-0.119,0.072-0.185,0.088
			c-0.492-0.689-1.097-1.11-1.097-1.11l-0.474,0.508c0.358,0.326,0.725,0.734,1.08,1.244c0.247,0.353,0.499,0.806,0.71,1.259
			l0.64-0.304c0,0-0.292-0.722-0.704-1.37c0.072-0.025,0.144-0.064,0.207-0.12c0.126-0.114,0.187-0.273,0.183-0.474
			c-0.001-0.13,0.042-0.218,0.094-0.276c0.071,0.054,0.16,0.089,0.257,0.089c0.232,0,0.419-0.187,0.419-0.418
			C257.714,475.695,257.527,475.508,257.295,475.508"/>
		<path style="fill:#424242;" d="M255.635,481.26c-0.881,0.429-2.33,0.996-4.238,1.262c-0.749,0.104-1.475,0.142-2.143,0.142
			c-0.869,0-1.637-0.065-2.226-0.139c-0.673-0.085-1.198-0.189-1.52-0.261c0.077,0.244,0.171,0.487,0.284,0.723
			c0.002,0.006,0.004,0.013,0.008,0.017c0.014,0.027,0.027,0.056,0.041,0.084c0.013,0.027,0.027,0.054,0.041,0.079
			c0.004,0.007,0.007,0.015,0.011,0.021c0.189,0.356,0.416,0.684,0.675,0.968c0.9,0.984,1.817,1.14,1.826,1.141l0.014,0.002
			l0.014,0.005c0.008,0.003,0.821,0.265,2.057,0.265c1.215,0,2.409-0.245,3.547-0.729c0.842-0.431,1.639-1.085,2.034-1.669
			c0.305-0.452,0.526-0.933,0.656-1.434c0.07-0.266,0.125-0.692,0.091-1.14C256.557,480.764,256.165,481.002,255.635,481.26"/>
		<path style="fill:#424242;" d="M246.161,477.576c-0.026,0.037-0.408,0.578-0.71,1.408c-0.226,0.622-0.216,1.527-0.216,1.538v0.002
			c0,0.212,0.012,0.423,0.035,0.632c0,0.005,0,0.007,0.001,0.011c0.003,0.027,0.007,0.052,0.01,0.079
			c0.019,0.145,0.043,0.291,0.074,0.438c0.437,0.112,3.049,0.721,5.967,0.314c1.83-0.254,3.218-0.795,4.062-1.204
			c0.7-0.34,1.151-0.648,1.324-0.774c-0.173-0.643-0.651-1.65-1.089-2.279c-1.254-1.791-2.604-2.25-3.298-2.365
			c-0.265-0.043-0.477-0.068-0.778-0.068c-0.279,0-0.626,0.022-1.089,0.071c-0.464,0.048-0.982,0.17-1.582,0.372
			c-0.842,0.281-1.604,0.725-2.204,1.28l-0.021,0.019C246.56,477.133,246.374,477.305,246.161,477.576 M253.83,477.159
			c0.6,0,1.089,0.488,1.089,1.09c0,0.601-0.489,1.09-1.089,1.09c-0.601,0-1.089-0.489-1.089-1.09
			C252.741,477.647,253.229,477.159,253.83,477.159 M248.679,477.116c0.973,0,1.76,0.789,1.76,1.761c0,0.972-0.787,1.759-1.76,1.759
			c-0.972,0-1.76-0.787-1.76-1.759C246.919,477.905,247.707,477.116,248.679,477.116"/>
	</g>
</g>
</svg>
